<?xml version="1.0" encoding="UTF-8" standalone="no"?>
<!DOCTYPE svg PUBLIC "-//W3C//DTD SVG 1.1//EN"
 "http://www.w3.org/Graphics/SVG/1.1/DTD/svg11.dtd">
<!-- Generated by graphviz version 2.43.0 (0)
 -->
<!-- Title: Tree Pages: 1 -->
<svg width="2563pt" height="461pt"
 viewBox="0.00 0.00 2563.00 461.00" xmlns="http://www.w3.org/2000/svg" xmlns:xlink="http://www.w3.org/1999/xlink">
<g id="graph0" class="graph" transform="scale(1 1) rotate(0) translate(4 457)">
<title>Tree</title>
<polygon fill="white" stroke="transparent" points="-4,4 -4,-457 2559,-457 2559,4 -4,4"/>
<!-- 0 -->
<g id="node1" class="node">
<title>0</title>
<path fill="#eeab7a" stroke="black" d="M1358.5,-453C1358.5,-453 1206.5,-453 1206.5,-453 1200.5,-453 1194.5,-447 1194.5,-441 1194.5,-441 1194.5,-401 1194.5,-401 1194.5,-395 1200.5,-389 1206.5,-389 1206.5,-389 1358.5,-389 1358.5,-389 1364.5,-389 1370.5,-395 1370.5,-401 1370.5,-401 1370.5,-441 1370.5,-441 1370.5,-447 1364.5,-453 1358.5,-453"/>
<text text-anchor="start" x="1248" y="-438.8" font-family="Helvetica,sans-Serif" font-size="14.00">x</text>
<text text-anchor="start" x="1257" y="-438.8" font-family="Helvetica,sans-Serif" baseline-shift="sub" font-size="14.00">31</text>
<text text-anchor="start" x="1273" y="-438.8" font-family="Helvetica,sans-Serif" font-size="14.00"> ≤ 0.5</text>
<text text-anchor="start" x="1225" y="-424.8" font-family="Helvetica,sans-Serif" font-size="14.00">entropy = 0.808</text>
<text text-anchor="start" x="1220.5" y="-410.8" font-family="Helvetica,sans-Serif" font-size="14.00">samples = 36177</text>
<text text-anchor="start" x="1202.5" y="-396.8" font-family="Helvetica,sans-Serif" font-size="14.00">value = [27212, 8965]</text>
</g>
<!-- 1 -->
<g id="node2" class="node">
<title>1</title>
<path fill="#e78a48" stroke="black" d="M1040.5,-353C1040.5,-353 888.5,-353 888.5,-353 882.5,-353 876.5,-347 876.5,-341 876.5,-341 876.5,-301 876.5,-301 876.5,-295 882.5,-289 888.5,-289 888.5,-289 1040.5,-289 1040.5,-289 1046.5,-289 1052.5,-295 1052.5,-301 1052.5,-301 1052.5,-341 1052.5,-341 1052.5,-347 1046.5,-353 1040.5,-353"/>
<text text-anchor="start" x="920.5" y="-338.8" font-family="Helvetica,sans-Serif" font-size="14.00">x</text>
<text text-anchor="start" x="929.5" y="-338.8" font-family="Helvetica,sans-Serif" baseline-shift="sub" font-size="14.00">3</text>
<text text-anchor="start" x="937.5" y="-338.8" font-family="Helvetica,sans-Serif" font-size="14.00"> ≤ 7055.5</text>
<text text-anchor="start" x="911.5" y="-324.8" font-family="Helvetica,sans-Serif" font-size="14.00">entropy = 0.36</text>
<text text-anchor="start" x="902.5" y="-310.8" font-family="Helvetica,sans-Serif" font-size="14.00">samples = 19274</text>
<text text-anchor="start" x="884.5" y="-296.8" font-family="Helvetica,sans-Serif" font-size="14.00">value = [17955, 1319]</text>
</g>
<!-- 0&#45;&gt;1 -->
<g id="edge1" class="edge">
<title>0&#45;&gt;1</title>
<path fill="none" stroke="black" d="M1194.34,-392.83C1153.33,-380.19 1104.41,-365.12 1062.27,-352.13"/>
<polygon fill="black" stroke="black" points="1063.14,-348.74 1052.55,-349.14 1061.08,-355.43 1063.14,-348.74"/>
<text text-anchor="middle" x="1064.24" y="-367.54" font-family="Helvetica,sans-Serif" font-size="14.00">True</text>
</g>
<!-- 16 -->
<g id="node17" class="node">
<title>16</title>
<path fill="#fae9dd" stroke="black" d="M1686,-353C1686,-353 1543,-353 1543,-353 1537,-353 1531,-347 1531,-341 1531,-341 1531,-301 1531,-301 1531,-295 1537,-289 1543,-289 1543,-289 1686,-289 1686,-289 1692,-289 1698,-295 1698,-301 1698,-301 1698,-341 1698,-341 1698,-347 1692,-353 1686,-353"/>
<text text-anchor="start" x="1579.5" y="-338.8" font-family="Helvetica,sans-Serif" font-size="14.00">x</text>
<text text-anchor="start" x="1588.5" y="-338.8" font-family="Helvetica,sans-Serif" baseline-shift="sub" font-size="14.00">2</text>
<text text-anchor="start" x="1596.5" y="-338.8" font-family="Helvetica,sans-Serif" font-size="14.00"> ≤ 12.5</text>
<text text-anchor="start" x="1557" y="-324.8" font-family="Helvetica,sans-Serif" font-size="14.00">entropy = 0.993</text>
<text text-anchor="start" x="1552.5" y="-310.8" font-family="Helvetica,sans-Serif" font-size="14.00">samples = 16903</text>
<text text-anchor="start" x="1539" y="-296.8" font-family="Helvetica,sans-Serif" font-size="14.00">value = [9257, 7646]</text>
</g>
<!-- 0&#45;&gt;16 -->
<g id="edge16" class="edge">
<title>0&#45;&gt;16</title>
<path fill="none" stroke="black" d="M1370.6,-394C1417.06,-380.28 1474.04,-363.46 1521.25,-349.53"/>
<polygon fill="black" stroke="black" points="1522.26,-352.88 1530.86,-346.69 1520.27,-346.16 1522.26,-352.88"/>
<text text-anchor="middle" x="1518.91" y="-364.95" font-family="Helvetica,sans-Serif" font-size="14.00">False</text>
</g>
<!-- 2 -->
<g id="node3" class="node">
<title>2</title>
<path fill="#e68844" stroke="black" d="M578,-253C578,-253 435,-253 435,-253 429,-253 423,-247 423,-241 423,-241 423,-201 423,-201 423,-195 429,-189 435,-189 435,-189 578,-189 578,-189 584,-189 590,-195 590,-201 590,-201 590,-241 590,-241 590,-247 584,-253 578,-253"/>
<text text-anchor="start" x="471.5" y="-238.8" font-family="Helvetica,sans-Serif" font-size="14.00">x</text>
<text text-anchor="start" x="480.5" y="-238.8" font-family="Helvetica,sans-Serif" baseline-shift="sub" font-size="14.00">2</text>
<text text-anchor="start" x="488.5" y="-238.8" font-family="Helvetica,sans-Serif" font-size="14.00"> ≤ 12.5</text>
<text text-anchor="start" x="449" y="-224.8" font-family="Helvetica,sans-Serif" font-size="14.00">entropy = 0.293</text>
<text text-anchor="start" x="444.5" y="-210.8" font-family="Helvetica,sans-Serif" font-size="14.00">samples = 18919</text>
<text text-anchor="start" x="431" y="-196.8" font-family="Helvetica,sans-Serif" font-size="14.00">value = [17945, 974]</text>
</g>
<!-- 1&#45;&gt;2 -->
<g id="edge2" class="edge">
<title>1&#45;&gt;2</title>
<path fill="none" stroke="black" d="M876.46,-301.16C797.22,-284.21 681.13,-259.37 600.19,-242.05"/>
<polygon fill="black" stroke="black" points="600.52,-238.54 590.01,-239.87 599.05,-245.38 600.52,-238.54"/>
</g>
<!-- 9 -->
<g id="node10" class="node">
<title>9</title>
<path fill="#3fa0e6" stroke="black" d="M1022.5,-253C1022.5,-253 906.5,-253 906.5,-253 900.5,-253 894.5,-247 894.5,-241 894.5,-241 894.5,-201 894.5,-201 894.5,-195 900.5,-189 906.5,-189 906.5,-189 1022.5,-189 1022.5,-189 1028.5,-189 1034.5,-195 1034.5,-201 1034.5,-201 1034.5,-241 1034.5,-241 1034.5,-247 1028.5,-253 1022.5,-253"/>
<text text-anchor="start" x="920.5" y="-238.8" font-family="Helvetica,sans-Serif" font-size="14.00">x</text>
<text text-anchor="start" x="929.5" y="-238.8" font-family="Helvetica,sans-Serif" baseline-shift="sub" font-size="14.00">3</text>
<text text-anchor="start" x="937.5" y="-238.8" font-family="Helvetica,sans-Serif" font-size="14.00"> ≤ 8296.0</text>
<text text-anchor="start" x="907" y="-224.8" font-family="Helvetica,sans-Serif" font-size="14.00">entropy = 0.185</text>
<text text-anchor="start" x="911.5" y="-210.8" font-family="Helvetica,sans-Serif" font-size="14.00">samples = 355</text>
<text text-anchor="start" x="902.5" y="-196.8" font-family="Helvetica,sans-Serif" font-size="14.00">value = [10, 345]</text>
</g>
<!-- 1&#45;&gt;9 -->
<g id="edge9" class="edge">
<title>1&#45;&gt;9</title>
<path fill="none" stroke="black" d="M964.5,-288.99C964.5,-280.86 964.5,-271.96 964.5,-263.38"/>
<polygon fill="black" stroke="black" points="968,-263.14 964.5,-253.14 961,-263.14 968,-263.14"/>
</g>
<!-- 3 -->
<g id="node4" class="node">
<title>3</title>
<path fill="#e6843e" stroke="black" d="M317,-153C317,-153 174,-153 174,-153 168,-153 162,-147 162,-141 162,-141 162,-101 162,-101 162,-95 168,-89 174,-89 174,-89 317,-89 317,-89 323,-89 329,-95 329,-101 329,-101 329,-141 329,-141 329,-147 323,-153 317,-153"/>
<text text-anchor="start" x="210.5" y="-138.8" font-family="Helvetica,sans-Serif" font-size="14.00">x</text>
<text text-anchor="start" x="219.5" y="-138.8" font-family="Helvetica,sans-Serif" baseline-shift="sub" font-size="14.00">0</text>
<text text-anchor="start" x="227.5" y="-138.8" font-family="Helvetica,sans-Serif" font-size="14.00"> ≤ 28.5</text>
<text text-anchor="start" x="188" y="-124.8" font-family="Helvetica,sans-Serif" font-size="14.00">entropy = 0.169</text>
<text text-anchor="start" x="183.5" y="-110.8" font-family="Helvetica,sans-Serif" font-size="14.00">samples = 15040</text>
<text text-anchor="start" x="170" y="-96.8" font-family="Helvetica,sans-Serif" font-size="14.00">value = [14663, 377]</text>
</g>
<!-- 2&#45;&gt;3 -->
<g id="edge3" class="edge">
<title>2&#45;&gt;3</title>
<path fill="none" stroke="black" d="M423.92,-188.99C396.55,-178.71 365.91,-167.21 337.85,-156.68"/>
<polygon fill="black" stroke="black" points="339.03,-153.38 328.44,-153.14 336.57,-159.93 339.03,-153.38"/>
</g>
<!-- 6 -->
<g id="node7" class="node">
<title>6</title>
<path fill="#ea985d" stroke="black" d="M573.5,-153C573.5,-153 439.5,-153 439.5,-153 433.5,-153 427.5,-147 427.5,-141 427.5,-141 427.5,-101 427.5,-101 427.5,-95 433.5,-89 439.5,-89 439.5,-89 573.5,-89 573.5,-89 579.5,-89 585.5,-95 585.5,-101 585.5,-101 585.5,-141 585.5,-141 585.5,-147 579.5,-153 573.5,-153"/>
<text text-anchor="start" x="471.5" y="-138.8" font-family="Helvetica,sans-Serif" font-size="14.00">x</text>
<text text-anchor="start" x="480.5" y="-138.8" font-family="Helvetica,sans-Serif" baseline-shift="sub" font-size="14.00">0</text>
<text text-anchor="start" x="488.5" y="-138.8" font-family="Helvetica,sans-Serif" font-size="14.00"> ≤ 27.5</text>
<text text-anchor="start" x="453.5" y="-124.8" font-family="Helvetica,sans-Serif" font-size="14.00">entropy = 0.62</text>
<text text-anchor="start" x="449" y="-110.8" font-family="Helvetica,sans-Serif" font-size="14.00">samples = 3879</text>
<text text-anchor="start" x="435.5" y="-96.8" font-family="Helvetica,sans-Serif" font-size="14.00">value = [3282, 597]</text>
</g>
<!-- 2&#45;&gt;6 -->
<g id="edge6" class="edge">
<title>2&#45;&gt;6</title>
<path fill="none" stroke="black" d="M506.5,-188.99C506.5,-180.86 506.5,-171.96 506.5,-163.38"/>
<polygon fill="black" stroke="black" points="510,-163.14 506.5,-153.14 503,-163.14 510,-163.14"/>
</g>
<!-- 4 -->
<g id="node5" class="node">
<title>4</title>
<path fill="#e5823a" stroke="black" d="M137,-53C137,-53 12,-53 12,-53 6,-53 0,-47 0,-41 0,-41 0,-12 0,-12 0,-6 6,0 12,0 12,0 137,0 137,0 143,0 149,-6 149,-12 149,-12 149,-41 149,-41 149,-47 143,-53 137,-53"/>
<text text-anchor="start" x="17" y="-37.8" font-family="Helvetica,sans-Serif" font-size="14.00">entropy = 0.041</text>
<text text-anchor="start" x="17" y="-22.8" font-family="Helvetica,sans-Serif" font-size="14.00">samples = 6540</text>
<text text-anchor="start" x="8" y="-7.8" font-family="Helvetica,sans-Serif" font-size="14.00">value = [6511, 29]</text>
</g>
<!-- 3&#45;&gt;4 -->
<g id="edge4" class="edge">
<title>3&#45;&gt;4</title>
<path fill="none" stroke="black" d="M188.08,-88.94C169.57,-78.93 149.09,-67.85 130.67,-57.88"/>
<polygon fill="black" stroke="black" points="132.27,-54.77 121.81,-53.09 128.94,-60.93 132.27,-54.77"/>
</g>
<!-- 5 -->
<g id="node6" class="node">
<title>5</title>
<path fill="#e68641" stroke="black" d="M312.5,-53C312.5,-53 178.5,-53 178.5,-53 172.5,-53 166.5,-47 166.5,-41 166.5,-41 166.5,-12 166.5,-12 166.5,-6 172.5,0 178.5,0 178.5,0 312.5,0 312.5,0 318.5,0 324.5,-6 324.5,-12 324.5,-12 324.5,-41 324.5,-41 324.5,-47 318.5,-53 312.5,-53"/>
<text text-anchor="start" x="188" y="-37.8" font-family="Helvetica,sans-Serif" font-size="14.00">entropy = 0.247</text>
<text text-anchor="start" x="188" y="-22.8" font-family="Helvetica,sans-Serif" font-size="14.00">samples = 8500</text>
<text text-anchor="start" x="174.5" y="-7.8" font-family="Helvetica,sans-Serif" font-size="14.00">value = [8152, 348]</text>
</g>
<!-- 3&#45;&gt;5 -->
<g id="edge5" class="edge">
<title>3&#45;&gt;5</title>
<path fill="none" stroke="black" d="M245.5,-88.94C245.5,-80.66 245.5,-71.64 245.5,-63.13"/>
<polygon fill="black" stroke="black" points="249,-63.09 245.5,-53.09 242,-63.09 249,-63.09"/>
</g>
<!-- 7 -->
<g id="node8" class="node">
<title>7</title>
<path fill="#e5833d" stroke="black" d="M479,-53C479,-53 354,-53 354,-53 348,-53 342,-47 342,-41 342,-41 342,-12 342,-12 342,-6 348,0 354,0 354,0 479,0 479,0 485,0 491,-6 491,-12 491,-12 491,-41 491,-41 491,-47 485,-53 479,-53"/>
<text text-anchor="start" x="359" y="-37.8" font-family="Helvetica,sans-Serif" font-size="14.00">entropy = 0.132</text>
<text text-anchor="start" x="359" y="-22.8" font-family="Helvetica,sans-Serif" font-size="14.00">samples = 1145</text>
<text text-anchor="start" x="350" y="-7.8" font-family="Helvetica,sans-Serif" font-size="14.00">value = [1124, 21]</text>
</g>
<!-- 6&#45;&gt;7 -->
<g id="edge7" class="edge">
<title>6&#45;&gt;7</title>
<path fill="none" stroke="black" d="M476.28,-88.94C467.34,-79.75 457.51,-69.65 448.46,-60.35"/>
<polygon fill="black" stroke="black" points="450.88,-57.82 441.4,-53.09 445.86,-62.7 450.88,-57.82"/>
</g>
<!-- 8 -->
<g id="node9" class="node">
<title>8</title>
<path fill="#eca36e" stroke="black" d="M654.5,-53C654.5,-53 520.5,-53 520.5,-53 514.5,-53 508.5,-47 508.5,-41 508.5,-41 508.5,-12 508.5,-12 508.5,-6 514.5,0 520.5,0 520.5,0 654.5,0 654.5,0 660.5,0 666.5,-6 666.5,-12 666.5,-12 666.5,-41 666.5,-41 666.5,-47 660.5,-53 654.5,-53"/>
<text text-anchor="start" x="530" y="-37.8" font-family="Helvetica,sans-Serif" font-size="14.00">entropy = 0.743</text>
<text text-anchor="start" x="530" y="-22.8" font-family="Helvetica,sans-Serif" font-size="14.00">samples = 2734</text>
<text text-anchor="start" x="516.5" y="-7.8" font-family="Helvetica,sans-Serif" font-size="14.00">value = [2158, 576]</text>
</g>
<!-- 6&#45;&gt;8 -->
<g id="edge8" class="edge">
<title>6&#45;&gt;8</title>
<path fill="none" stroke="black" d="M533.7,-88.94C541.67,-79.84 550.41,-69.85 558.49,-60.63"/>
<polygon fill="black" stroke="black" points="561.14,-62.92 565.09,-53.09 555.87,-58.31 561.14,-62.92"/>
</g>
<!-- 10 -->
<g id="node11" class="node">
<title>10</title>
<path fill="#95cbf1" stroke="black" d="M944,-153C944,-153 837,-153 837,-153 831,-153 825,-147 825,-141 825,-141 825,-101 825,-101 825,-95 831,-89 837,-89 837,-89 944,-89 944,-89 950,-89 956,-95 956,-101 956,-101 956,-141 956,-141 956,-147 950,-153 944,-153"/>
<text text-anchor="start" x="846.5" y="-138.8" font-family="Helvetica,sans-Serif" font-size="14.00">x</text>
<text text-anchor="start" x="855.5" y="-138.8" font-family="Helvetica,sans-Serif" baseline-shift="sub" font-size="14.00">3</text>
<text text-anchor="start" x="863.5" y="-138.8" font-family="Helvetica,sans-Serif" font-size="14.00"> ≤ 7436.5</text>
<text text-anchor="start" x="833" y="-124.8" font-family="Helvetica,sans-Serif" font-size="14.00">entropy = 0.902</text>
<text text-anchor="start" x="842" y="-110.8" font-family="Helvetica,sans-Serif" font-size="14.00">samples = 22</text>
<text text-anchor="start" x="837.5" y="-96.8" font-family="Helvetica,sans-Serif" font-size="14.00">value = [7, 15]</text>
</g>
<!-- 9&#45;&gt;10 -->
<g id="edge10" class="edge">
<title>9&#45;&gt;10</title>
<path fill="none" stroke="black" d="M941.09,-188.99C934.47,-180.23 927.19,-170.58 920.25,-161.4"/>
<polygon fill="black" stroke="black" points="922.83,-159.01 914.02,-153.14 917.25,-163.23 922.83,-159.01"/>
</g>
<!-- 13 -->
<g id="node14" class="node">
<title>13</title>
<path fill="#3b9ee5" stroke="black" d="M1093,-153C1093,-153 986,-153 986,-153 980,-153 974,-147 974,-141 974,-141 974,-101 974,-101 974,-95 980,-89 986,-89 986,-89 1093,-89 1093,-89 1099,-89 1105,-95 1105,-101 1105,-101 1105,-141 1105,-141 1105,-147 1099,-153 1093,-153"/>
<text text-anchor="start" x="1004.5" y="-138.8" font-family="Helvetica,sans-Serif" font-size="14.00">x</text>
<text text-anchor="start" x="1013.5" y="-138.8" font-family="Helvetica,sans-Serif" baseline-shift="sub" font-size="14.00">0</text>
<text text-anchor="start" x="1021.5" y="-138.8" font-family="Helvetica,sans-Serif" font-size="14.00"> ≤ 20.0</text>
<text text-anchor="start" x="982" y="-124.8" font-family="Helvetica,sans-Serif" font-size="14.00">entropy = 0.074</text>
<text text-anchor="start" x="986.5" y="-110.8" font-family="Helvetica,sans-Serif" font-size="14.00">samples = 333</text>
<text text-anchor="start" x="982" y="-96.8" font-family="Helvetica,sans-Serif" font-size="14.00">value = [3, 330]</text>
</g>
<!-- 9&#45;&gt;13 -->
<g id="edge13" class="edge">
<title>9&#45;&gt;13</title>
<path fill="none" stroke="black" d="M988.23,-188.99C995,-180.14 1002.47,-170.39 1009.56,-161.12"/>
<polygon fill="black" stroke="black" points="1012.37,-163.21 1015.67,-153.14 1006.81,-158.96 1012.37,-163.21"/>
</g>
<!-- 11 -->
<g id="node12" class="node">
<title>11</title>
<path fill="#399de5" stroke="black" d="M794.5,-53C794.5,-53 696.5,-53 696.5,-53 690.5,-53 684.5,-47 684.5,-41 684.5,-41 684.5,-12 684.5,-12 684.5,-6 690.5,0 696.5,0 696.5,0 794.5,0 794.5,0 800.5,0 806.5,-6 806.5,-12 806.5,-12 806.5,-41 806.5,-41 806.5,-47 800.5,-53 794.5,-53"/>
<text text-anchor="start" x="697" y="-37.8" font-family="Helvetica,sans-Serif" font-size="14.00">entropy = 0.0</text>
<text text-anchor="start" x="697" y="-22.8" font-family="Helvetica,sans-Serif" font-size="14.00">samples = 14</text>
<text text-anchor="start" x="692.5" y="-7.8" font-family="Helvetica,sans-Serif" font-size="14.00">value = [0, 14]</text>
</g>
<!-- 10&#45;&gt;11 -->
<g id="edge11" class="edge">
<title>10&#45;&gt;11</title>
<path fill="none" stroke="black" d="M841.81,-88.94C826.55,-79.2 809.69,-68.45 794.41,-58.7"/>
<polygon fill="black" stroke="black" points="795.93,-55.52 785.62,-53.09 792.16,-61.42 795.93,-55.52"/>
</g>
<!-- 12 -->
<g id="node13" class="node">
<title>12</title>
<path fill="#e99355" stroke="black" d="M944,-53C944,-53 837,-53 837,-53 831,-53 825,-47 825,-41 825,-41 825,-12 825,-12 825,-6 831,0 837,0 837,0 944,0 944,0 950,0 956,-6 956,-12 956,-12 956,-41 956,-41 956,-47 950,-53 944,-53"/>
<text text-anchor="start" x="833" y="-37.8" font-family="Helvetica,sans-Serif" font-size="14.00">entropy = 0.544</text>
<text text-anchor="start" x="846.5" y="-22.8" font-family="Helvetica,sans-Serif" font-size="14.00">samples = 8</text>
<text text-anchor="start" x="842" y="-7.8" font-family="Helvetica,sans-Serif" font-size="14.00">value = [7, 1]</text>
</g>
<!-- 10&#45;&gt;12 -->
<g id="edge12" class="edge">
<title>10&#45;&gt;12</title>
<path fill="none" stroke="black" d="M890.5,-88.94C890.5,-80.66 890.5,-71.64 890.5,-63.13"/>
<polygon fill="black" stroke="black" points="894,-63.09 890.5,-53.09 887,-63.09 894,-63.09"/>
</g>
<!-- 14 -->
<g id="node15" class="node">
<title>14</title>
<path fill="#f2c09c" stroke="black" d="M1093,-53C1093,-53 986,-53 986,-53 980,-53 974,-47 974,-41 974,-41 974,-12 974,-12 974,-6 980,0 986,0 986,0 1093,0 1093,0 1099,0 1105,-6 1105,-12 1105,-12 1105,-41 1105,-41 1105,-47 1099,-53 1093,-53"/>
<text text-anchor="start" x="982" y="-37.8" font-family="Helvetica,sans-Serif" font-size="14.00">entropy = 0.918</text>
<text text-anchor="start" x="995.5" y="-22.8" font-family="Helvetica,sans-Serif" font-size="14.00">samples = 3</text>
<text text-anchor="start" x="991" y="-7.8" font-family="Helvetica,sans-Serif" font-size="14.00">value = [2, 1]</text>
</g>
<!-- 13&#45;&gt;14 -->
<g id="edge14" class="edge">
<title>13&#45;&gt;14</title>
<path fill="none" stroke="black" d="M1039.5,-88.94C1039.5,-80.66 1039.5,-71.64 1039.5,-63.13"/>
<polygon fill="black" stroke="black" points="1043,-63.09 1039.5,-53.09 1036,-63.09 1043,-63.09"/>
</g>
<!-- 15 -->
<g id="node16" class="node">
<title>15</title>
<path fill="#3a9de5" stroke="black" d="M1242,-53C1242,-53 1135,-53 1135,-53 1129,-53 1123,-47 1123,-41 1123,-41 1123,-12 1123,-12 1123,-6 1129,0 1135,0 1135,0 1242,0 1242,0 1248,0 1254,-6 1254,-12 1254,-12 1254,-41 1254,-41 1254,-47 1248,-53 1242,-53"/>
<text text-anchor="start" x="1135.5" y="-37.8" font-family="Helvetica,sans-Serif" font-size="14.00">entropy = 0.03</text>
<text text-anchor="start" x="1135.5" y="-22.8" font-family="Helvetica,sans-Serif" font-size="14.00">samples = 330</text>
<text text-anchor="start" x="1131" y="-7.8" font-family="Helvetica,sans-Serif" font-size="14.00">value = [1, 329]</text>
</g>
<!-- 13&#45;&gt;15 -->
<g id="edge15" class="edge">
<title>13&#45;&gt;15</title>
<path fill="none" stroke="black" d="M1089.53,-88.94C1105.37,-79.11 1122.86,-68.25 1138.68,-58.43"/>
<polygon fill="black" stroke="black" points="1140.63,-61.34 1147.28,-53.09 1136.94,-55.39 1140.63,-61.34"/>
</g>
<!-- 17 -->
<g id="node18" class="node">
<title>17</title>
<path fill="#f2c19d" stroke="black" d="M1686,-253C1686,-253 1543,-253 1543,-253 1537,-253 1531,-247 1531,-241 1531,-241 1531,-201 1531,-201 1531,-195 1537,-189 1543,-189 1543,-189 1686,-189 1686,-189 1692,-189 1698,-195 1698,-201 1698,-201 1698,-241 1698,-241 1698,-247 1692,-253 1686,-253"/>
<text text-anchor="start" x="1570.5" y="-238.8" font-family="Helvetica,sans-Serif" font-size="14.00">x</text>
<text text-anchor="start" x="1579.5" y="-238.8" font-family="Helvetica,sans-Serif" baseline-shift="sub" font-size="14.00">3</text>
<text text-anchor="start" x="1587.5" y="-238.8" font-family="Helvetica,sans-Serif" font-size="14.00"> ≤ 5095.5</text>
<text text-anchor="start" x="1557" y="-224.8" font-family="Helvetica,sans-Serif" font-size="14.00">entropy = 0.921</text>
<text text-anchor="start" x="1552.5" y="-210.8" font-family="Helvetica,sans-Serif" font-size="14.00">samples = 11825</text>
<text text-anchor="start" x="1539" y="-196.8" font-family="Helvetica,sans-Serif" font-size="14.00">value = [7853, 3972]</text>
</g>
<!-- 16&#45;&gt;17 -->
<g id="edge17" class="edge">
<title>16&#45;&gt;17</title>
<path fill="none" stroke="black" d="M1614.5,-288.99C1614.5,-280.86 1614.5,-271.96 1614.5,-263.38"/>
<polygon fill="black" stroke="black" points="1618,-263.14 1614.5,-253.14 1611,-263.14 1618,-263.14"/>
</g>
<!-- 24 -->
<g id="node25" class="node">
<title>24</title>
<path fill="#85c2ef" stroke="black" d="M2165,-253C2165,-253 2022,-253 2022,-253 2016,-253 2010,-247 2010,-241 2010,-241 2010,-201 2010,-201 2010,-195 2016,-189 2022,-189 2022,-189 2165,-189 2165,-189 2171,-189 2177,-195 2177,-201 2177,-201 2177,-241 2177,-241 2177,-247 2171,-253 2165,-253"/>
<text text-anchor="start" x="2049.5" y="-238.8" font-family="Helvetica,sans-Serif" font-size="14.00">x</text>
<text text-anchor="start" x="2058.5" y="-238.8" font-family="Helvetica,sans-Serif" baseline-shift="sub" font-size="14.00">3</text>
<text text-anchor="start" x="2066.5" y="-238.8" font-family="Helvetica,sans-Serif" font-size="14.00"> ≤ 5095.5</text>
<text text-anchor="start" x="2036" y="-224.8" font-family="Helvetica,sans-Serif" font-size="14.00">entropy = 0.851</text>
<text text-anchor="start" x="2036" y="-210.8" font-family="Helvetica,sans-Serif" font-size="14.00">samples = 5078</text>
<text text-anchor="start" x="2018" y="-196.8" font-family="Helvetica,sans-Serif" font-size="14.00">value = [1404, 3674]</text>
</g>
<!-- 16&#45;&gt;24 -->
<g id="edge24" class="edge">
<title>16&#45;&gt;24</title>
<path fill="none" stroke="black" d="M1698.21,-302.87C1782.52,-285.62 1912.33,-259.07 1999.98,-241.13"/>
<polygon fill="black" stroke="black" points="2000.82,-244.53 2009.92,-239.1 1999.42,-237.68 2000.82,-244.53"/>
</g>
<!-- 18 -->
<g id="node19" class="node">
<title>18</title>
<path fill="#f0b78f" stroke="black" d="M1600,-153C1600,-153 1457,-153 1457,-153 1451,-153 1445,-147 1445,-141 1445,-141 1445,-101 1445,-101 1445,-95 1451,-89 1457,-89 1457,-89 1600,-89 1600,-89 1606,-89 1612,-95 1612,-101 1612,-101 1612,-141 1612,-141 1612,-147 1606,-153 1600,-153"/>
<text text-anchor="start" x="1498" y="-138.8" font-family="Helvetica,sans-Serif" font-size="14.00">x</text>
<text text-anchor="start" x="1507" y="-138.8" font-family="Helvetica,sans-Serif" baseline-shift="sub" font-size="14.00">2</text>
<text text-anchor="start" x="1515" y="-138.8" font-family="Helvetica,sans-Serif" font-size="14.00"> ≤ 8.5</text>
<text text-anchor="start" x="1471" y="-124.8" font-family="Helvetica,sans-Serif" font-size="14.00">entropy = 0.883</text>
<text text-anchor="start" x="1466.5" y="-110.8" font-family="Helvetica,sans-Serif" font-size="14.00">samples = 11232</text>
<text text-anchor="start" x="1453" y="-96.8" font-family="Helvetica,sans-Serif" font-size="14.00">value = [7842, 3390]</text>
</g>
<!-- 17&#45;&gt;18 -->
<g id="edge18" class="edge">
<title>17&#45;&gt;18</title>
<path fill="none" stroke="black" d="M1587.29,-188.99C1579.45,-180.06 1570.79,-170.19 1562.59,-160.84"/>
<polygon fill="black" stroke="black" points="1565.06,-158.35 1555.83,-153.14 1559.79,-162.97 1565.06,-158.35"/>
</g>
<!-- 21 -->
<g id="node22" class="node">
<title>21</title>
<path fill="#3d9fe5" stroke="black" d="M1758.5,-153C1758.5,-153 1642.5,-153 1642.5,-153 1636.5,-153 1630.5,-147 1630.5,-141 1630.5,-141 1630.5,-101 1630.5,-101 1630.5,-95 1636.5,-89 1642.5,-89 1642.5,-89 1758.5,-89 1758.5,-89 1764.5,-89 1770.5,-95 1770.5,-101 1770.5,-101 1770.5,-141 1770.5,-141 1770.5,-147 1764.5,-153 1758.5,-153"/>
<text text-anchor="start" x="1665.5" y="-138.8" font-family="Helvetica,sans-Serif" font-size="14.00">x</text>
<text text-anchor="start" x="1674.5" y="-138.8" font-family="Helvetica,sans-Serif" baseline-shift="sub" font-size="14.00">0</text>
<text text-anchor="start" x="1682.5" y="-138.8" font-family="Helvetica,sans-Serif" font-size="14.00"> ≤ 60.5</text>
<text text-anchor="start" x="1643" y="-124.8" font-family="Helvetica,sans-Serif" font-size="14.00">entropy = 0.133</text>
<text text-anchor="start" x="1647.5" y="-110.8" font-family="Helvetica,sans-Serif" font-size="14.00">samples = 593</text>
<text text-anchor="start" x="1638.5" y="-96.8" font-family="Helvetica,sans-Serif" font-size="14.00">value = [11, 582]</text>
</g>
<!-- 17&#45;&gt;21 -->
<g id="edge21" class="edge">
<title>17&#45;&gt;21</title>
<path fill="none" stroke="black" d="M1641.71,-188.99C1649.55,-180.06 1658.21,-170.19 1666.41,-160.84"/>
<polygon fill="black" stroke="black" points="1669.21,-162.97 1673.17,-153.14 1663.94,-158.35 1669.21,-162.97"/>
</g>
<!-- 19 -->
<g id="node20" class="node">
<title>19</title>
<path fill="#e89050" stroke="black" d="M1418.5,-53C1418.5,-53 1284.5,-53 1284.5,-53 1278.5,-53 1272.5,-47 1272.5,-41 1272.5,-41 1272.5,-12 1272.5,-12 1272.5,-6 1278.5,0 1284.5,0 1284.5,0 1418.5,0 1418.5,0 1424.5,0 1430.5,-6 1430.5,-12 1430.5,-12 1430.5,-41 1430.5,-41 1430.5,-47 1424.5,-53 1418.5,-53"/>
<text text-anchor="start" x="1294" y="-37.8" font-family="Helvetica,sans-Serif" font-size="14.00">entropy = 0.487</text>
<text text-anchor="start" x="1294" y="-22.8" font-family="Helvetica,sans-Serif" font-size="14.00">samples = 1827</text>
<text text-anchor="start" x="1280.5" y="-7.8" font-family="Helvetica,sans-Serif" font-size="14.00">value = [1634, 193]</text>
</g>
<!-- 18&#45;&gt;19 -->
<g id="edge19" class="edge">
<title>18&#45;&gt;19</title>
<path fill="none" stroke="black" d="M1469.07,-88.94C1449.82,-78.88 1428.51,-67.75 1409.38,-57.75"/>
<polygon fill="black" stroke="black" points="1410.95,-54.62 1400.47,-53.09 1407.71,-60.82 1410.95,-54.62"/>
</g>
<!-- 20 -->
<g id="node21" class="node">
<title>20</title>
<path fill="#f2c29f" stroke="black" d="M1603,-53C1603,-53 1460,-53 1460,-53 1454,-53 1448,-47 1448,-41 1448,-41 1448,-12 1448,-12 1448,-6 1454,0 1460,0 1460,0 1603,0 1603,0 1609,0 1615,-6 1615,-12 1615,-12 1615,-41 1615,-41 1615,-47 1609,-53 1603,-53"/>
<text text-anchor="start" x="1474" y="-37.8" font-family="Helvetica,sans-Serif" font-size="14.00">entropy = 0.925</text>
<text text-anchor="start" x="1474" y="-22.8" font-family="Helvetica,sans-Serif" font-size="14.00">samples = 9405</text>
<text text-anchor="start" x="1456" y="-7.8" font-family="Helvetica,sans-Serif" font-size="14.00">value = [6208, 3197]</text>
</g>
<!-- 18&#45;&gt;20 -->
<g id="edge20" class="edge">
<title>18&#45;&gt;20</title>
<path fill="none" stroke="black" d="M1529.51,-88.94C1529.78,-80.66 1530.07,-71.64 1530.34,-63.13"/>
<polygon fill="black" stroke="black" points="1533.84,-63.2 1530.67,-53.09 1526.85,-62.97 1533.84,-63.2"/>
</g>
<!-- 22 -->
<g id="node23" class="node">
<title>22</title>
<path fill="#3a9de5" stroke="black" d="M1752,-53C1752,-53 1645,-53 1645,-53 1639,-53 1633,-47 1633,-41 1633,-41 1633,-12 1633,-12 1633,-6 1639,0 1645,0 1645,0 1752,0 1752,0 1758,0 1764,-6 1764,-12 1764,-12 1764,-41 1764,-41 1764,-47 1758,-53 1752,-53"/>
<text text-anchor="start" x="1641" y="-37.8" font-family="Helvetica,sans-Serif" font-size="14.00">entropy = 0.036</text>
<text text-anchor="start" x="1645.5" y="-22.8" font-family="Helvetica,sans-Serif" font-size="14.00">samples = 529</text>
<text text-anchor="start" x="1641" y="-7.8" font-family="Helvetica,sans-Serif" font-size="14.00">value = [2, 527]</text>
</g>
<!-- 21&#45;&gt;22 -->
<g id="edge22" class="edge">
<title>21&#45;&gt;22</title>
<path fill="none" stroke="black" d="M1699.83,-88.94C1699.65,-80.66 1699.45,-71.64 1699.27,-63.13"/>
<polygon fill="black" stroke="black" points="1702.77,-63.01 1699.05,-53.09 1695.77,-63.16 1702.77,-63.01"/>
</g>
<!-- 23 -->
<g id="node24" class="node">
<title>23</title>
<path fill="#59ade9" stroke="black" d="M1901,-53C1901,-53 1794,-53 1794,-53 1788,-53 1782,-47 1782,-41 1782,-41 1782,-12 1782,-12 1782,-6 1788,0 1794,0 1794,0 1901,0 1901,0 1907,0 1913,-6 1913,-12 1913,-12 1913,-41 1913,-41 1913,-47 1907,-53 1901,-53"/>
<text text-anchor="start" x="1790" y="-37.8" font-family="Helvetica,sans-Serif" font-size="14.00">entropy = 0.586</text>
<text text-anchor="start" x="1799" y="-22.8" font-family="Helvetica,sans-Serif" font-size="14.00">samples = 64</text>
<text text-anchor="start" x="1794.5" y="-7.8" font-family="Helvetica,sans-Serif" font-size="14.00">value = [9, 55]</text>
</g>
<!-- 21&#45;&gt;23 -->
<g id="edge23" class="edge">
<title>21&#45;&gt;23</title>
<path fill="none" stroke="black" d="M1749.86,-88.94C1765.48,-79.11 1782.74,-68.25 1798.35,-58.43"/>
<polygon fill="black" stroke="black" points="1800.23,-61.38 1806.83,-53.09 1796.5,-55.45 1800.23,-61.38"/>
</g>
<!-- 25 -->
<g id="node26" class="node">
<title>25</title>
<path fill="#99cdf2" stroke="black" d="M2165,-153C2165,-153 2022,-153 2022,-153 2016,-153 2010,-147 2010,-141 2010,-141 2010,-101 2010,-101 2010,-95 2016,-89 2022,-89 2022,-89 2165,-89 2165,-89 2171,-89 2177,-95 2177,-101 2177,-101 2177,-141 2177,-141 2177,-147 2171,-153 2165,-153"/>
<text text-anchor="start" x="2049.5" y="-138.8" font-family="Helvetica,sans-Serif" font-size="14.00">x</text>
<text text-anchor="start" x="2058.5" y="-138.8" font-family="Helvetica,sans-Serif" baseline-shift="sub" font-size="14.00">4</text>
<text text-anchor="start" x="2066.5" y="-138.8" font-family="Helvetica,sans-Serif" font-size="14.00"> ≤ 1794.0</text>
<text text-anchor="start" x="2036" y="-124.8" font-family="Helvetica,sans-Serif" font-size="14.00">entropy = 0.912</text>
<text text-anchor="start" x="2036" y="-110.8" font-family="Helvetica,sans-Serif" font-size="14.00">samples = 4284</text>
<text text-anchor="start" x="2018" y="-96.8" font-family="Helvetica,sans-Serif" font-size="14.00">value = [1402, 2882]</text>
</g>
<!-- 24&#45;&gt;25 -->
<g id="edge25" class="edge">
<title>24&#45;&gt;25</title>
<path fill="none" stroke="black" d="M2093.5,-188.99C2093.5,-180.86 2093.5,-171.96 2093.5,-163.38"/>
<polygon fill="black" stroke="black" points="2097,-163.14 2093.5,-153.14 2090,-163.14 2097,-163.14"/>
</g>
<!-- 28 -->
<g id="node29" class="node">
<title>28</title>
<path fill="#399de5" stroke="black" d="M2394,-153C2394,-153 2287,-153 2287,-153 2281,-153 2275,-147 2275,-141 2275,-141 2275,-101 2275,-101 2275,-95 2281,-89 2287,-89 2287,-89 2394,-89 2394,-89 2400,-89 2406,-95 2406,-101 2406,-101 2406,-141 2406,-141 2406,-147 2400,-153 2394,-153"/>
<text text-anchor="start" x="2305.5" y="-138.8" font-family="Helvetica,sans-Serif" font-size="14.00">x</text>
<text text-anchor="start" x="2314.5" y="-138.8" font-family="Helvetica,sans-Serif" baseline-shift="sub" font-size="14.00">0</text>
<text text-anchor="start" x="2322.5" y="-138.8" font-family="Helvetica,sans-Serif" font-size="14.00"> ≤ 62.5</text>
<text text-anchor="start" x="2283" y="-124.8" font-family="Helvetica,sans-Serif" font-size="14.00">entropy = 0.025</text>
<text text-anchor="start" x="2287.5" y="-110.8" font-family="Helvetica,sans-Serif" font-size="14.00">samples = 794</text>
<text text-anchor="start" x="2283" y="-96.8" font-family="Helvetica,sans-Serif" font-size="14.00">value = [2, 792]</text>
</g>
<!-- 24&#45;&gt;28 -->
<g id="edge28" class="edge">
<title>24&#45;&gt;28</title>
<path fill="none" stroke="black" d="M2171.65,-188.99C2201.62,-177.1 2235.73,-163.57 2265.41,-151.79"/>
<polygon fill="black" stroke="black" points="2266.87,-154.98 2274.88,-148.04 2264.29,-148.47 2266.87,-154.98"/>
</g>
<!-- 26 -->
<g id="node27" class="node">
<title>26</title>
<path fill="#a8d4f4" stroke="black" d="M2086,-53C2086,-53 1943,-53 1943,-53 1937,-53 1931,-47 1931,-41 1931,-41 1931,-12 1931,-12 1931,-6 1937,0 1943,0 1943,0 2086,0 2086,0 2092,0 2098,-6 2098,-12 2098,-12 2098,-41 2098,-41 2098,-47 2092,-53 2086,-53"/>
<text text-anchor="start" x="1957" y="-37.8" font-family="Helvetica,sans-Serif" font-size="14.00">entropy = 0.943</text>
<text text-anchor="start" x="1957" y="-22.8" font-family="Helvetica,sans-Serif" font-size="14.00">samples = 3857</text>
<text text-anchor="start" x="1939" y="-7.8" font-family="Helvetica,sans-Serif" font-size="14.00">value = [1388, 2469]</text>
</g>
<!-- 25&#45;&gt;26 -->
<g id="edge26" class="edge">
<title>25&#45;&gt;26</title>
<path fill="none" stroke="black" d="M2066.97,-88.94C2059.28,-79.93 2050.84,-70.05 2043.03,-60.9"/>
<polygon fill="black" stroke="black" points="2045.51,-58.42 2036.36,-53.09 2040.19,-62.97 2045.51,-58.42"/>
</g>
<!-- 27 -->
<g id="node28" class="node">
<title>27</title>
<path fill="#40a0e6" stroke="black" d="M2244.5,-53C2244.5,-53 2128.5,-53 2128.5,-53 2122.5,-53 2116.5,-47 2116.5,-41 2116.5,-41 2116.5,-12 2116.5,-12 2116.5,-6 2122.5,0 2128.5,0 2128.5,0 2244.5,0 2244.5,0 2250.5,0 2256.5,-6 2256.5,-12 2256.5,-12 2256.5,-41 2256.5,-41 2256.5,-47 2250.5,-53 2244.5,-53"/>
<text text-anchor="start" x="2129" y="-37.8" font-family="Helvetica,sans-Serif" font-size="14.00">entropy = 0.208</text>
<text text-anchor="start" x="2133.5" y="-22.8" font-family="Helvetica,sans-Serif" font-size="14.00">samples = 427</text>
<text text-anchor="start" x="2124.5" y="-7.8" font-family="Helvetica,sans-Serif" font-size="14.00">value = [14, 413]</text>
</g>
<!-- 25&#45;&gt;27 -->
<g id="edge27" class="edge">
<title>25&#45;&gt;27</title>
<path fill="none" stroke="black" d="M2124.73,-88.94C2133.97,-79.75 2144.12,-69.65 2153.47,-60.35"/>
<polygon fill="black" stroke="black" points="2156.15,-62.62 2160.77,-53.09 2151.21,-57.66 2156.15,-62.62"/>
</g>
<!-- 29 -->
<g id="node30" class="node">
<title>29</title>
<path fill="#399de5" stroke="black" d="M2394,-53C2394,-53 2287,-53 2287,-53 2281,-53 2275,-47 2275,-41 2275,-41 2275,-12 2275,-12 2275,-6 2281,0 2287,0 2287,0 2394,0 2394,0 2400,0 2406,-6 2406,-12 2406,-12 2406,-41 2406,-41 2406,-47 2400,-53 2394,-53"/>
<text text-anchor="start" x="2292" y="-37.8" font-family="Helvetica,sans-Serif" font-size="14.00">entropy = 0.0</text>
<text text-anchor="start" x="2287.5" y="-22.8" font-family="Helvetica,sans-Serif" font-size="14.00">samples = 720</text>
<text text-anchor="start" x="2283" y="-7.8" font-family="Helvetica,sans-Serif" font-size="14.00">value = [0, 720]</text>
</g>
<!-- 28&#45;&gt;29 -->
<g id="edge29" class="edge">
<title>28&#45;&gt;29</title>
<path fill="none" stroke="black" d="M2340.5,-88.94C2340.5,-80.66 2340.5,-71.64 2340.5,-63.13"/>
<polygon fill="black" stroke="black" points="2344,-63.09 2340.5,-53.09 2337,-63.09 2344,-63.09"/>
</g>
<!-- 30 -->
<g id="node31" class="node">
<title>30</title>
<path fill="#3ea0e6" stroke="black" d="M2543,-53C2543,-53 2436,-53 2436,-53 2430,-53 2424,-47 2424,-41 2424,-41 2424,-12 2424,-12 2424,-6 2430,0 2436,0 2436,0 2543,0 2543,0 2549,0 2555,-6 2555,-12 2555,-12 2555,-41 2555,-41 2555,-47 2549,-53 2543,-53"/>
<text text-anchor="start" x="2432" y="-37.8" font-family="Helvetica,sans-Serif" font-size="14.00">entropy = 0.179</text>
<text text-anchor="start" x="2441" y="-22.8" font-family="Helvetica,sans-Serif" font-size="14.00">samples = 74</text>
<text text-anchor="start" x="2436.5" y="-7.8" font-family="Helvetica,sans-Serif" font-size="14.00">value = [2, 72]</text>
</g>
<!-- 28&#45;&gt;30 -->
<g id="edge30" class="edge">
<title>28&#45;&gt;30</title>
<path fill="none" stroke="black" d="M2390.53,-88.94C2406.37,-79.11 2423.86,-68.25 2439.68,-58.43"/>
<polygon fill="black" stroke="black" points="2441.63,-61.34 2448.28,-53.09 2437.94,-55.39 2441.63,-61.34"/>
</g>
</g>
</svg>
